<svg width="343" height="155" viewBox="0 0 343 155" fill="none" xmlns="http://www.w3.org/2000/svg">
<path fill-rule="evenodd" clip-rule="evenodd" d="M-296.242 -346.186C-280.962 -422.195 -262.358 -511.944 -205.054 -551.431C-148.208 -590.601 -85.2908 -518.394 -22.6391 -534.715C49.8239 -553.593 107.086 -672.3 176.085 -650.722C241.844 -630.157 255.025 -523.349 270.132 -443.157C283.534 -372.019 276.781 -297.1 256.326 -224.794C237.089 -156.795 198.954 -101.452 158.162 -47.3602C111.779 14.1461 70.0271 96.5255 4.17047 109.575C-61.8925 122.665 -113.638 59.3969 -166.525 16.9765C-215.573 -22.365 -266.919 -60.8994 -290.432 -126.725C-314.354 -193.699 -311.245 -271.556 -296.242 -346.186Z" fill="#845DB4"/>
</svg>
