<svg width="514" height="213" viewBox="0 0 514 213" fill="none" xmlns="http://www.w3.org/2000/svg">
<path fill-rule="evenodd" clip-rule="evenodd" d="M83.758 389.814C99.038 313.805 117.642 224.056 174.946 184.569C231.792 145.399 294.709 217.606 357.361 201.285C429.824 182.407 487.086 63.7001 556.085 85.278C621.844 105.843 635.025 212.651 650.132 292.843C663.534 363.981 656.781 438.9 636.326 511.206C617.089 579.205 578.954 634.548 538.162 688.64C491.779 750.146 450.027 832.525 384.17 845.575C318.108 858.665 266.362 795.397 213.475 752.977C164.427 713.635 113.081 675.101 89.5684 609.275C65.6459 542.301 68.7552 464.444 83.758 389.814Z" fill="#3A3461"/>
</svg>
