<svg width="499" height="535" viewBox="0 0 499 535" fill="none" xmlns="http://www.w3.org/2000/svg">
<path fill-rule="evenodd" clip-rule="evenodd" d="M333.806 -124.558C367.333 -49.7162 406.353 39.0328 373.894 111.198C341.694 182.785 231.612 163.896 178.828 219.997C117.777 284.884 136.394 424.287 52.7819 452.487C-26.9038 479.363 -109.026 397.56 -175.948 339.656C-235.315 288.288 -276.755 220.121 -302.667 144.936C-327.036 74.2279 -324.159 1.52387 -317.791 -71.9093C-310.551 -155.408 -321.436 -253.506 -263.306 -308.99C-204.994 -364.648 -111.957 -345.816 -31.1972 -345.456C43.7011 -345.121 120.401 -347.022 186.561 -306.983C253.875 -266.245 300.888 -198.041 333.806 -124.558Z" fill="#3A3461"/>
</svg>
