<svg width="336" height="517" viewBox="0 0 336 517" fill="none" xmlns="http://www.w3.org/2000/svg">
<path fill-rule="evenodd" clip-rule="evenodd" d="M350.493 4.02969C423.186 -5.13259 508.379 -2.09816 559.943 49.9532C610.666 101.156 577.298 188.776 600.954 256.857C625.436 327.317 712.003 378.1 699.516 451.64C687.064 524.981 611.277 574.367 542.31 602.249C481.471 626.845 415.796 599.227 350.493 592.745C293.357 587.073 235.278 593.5 184.483 566.73C128.02 536.972 81.1101 491.975 51.7548 435.302C18.3449 370.801 -16.576 295.286 8.58611 227.144C33.6061 159.385 115.696 137.795 176.186 98.3223C232.896 61.3159 283.309 12.4977 350.493 4.02969Z" fill="#845DB4"/>
</svg>
