<svg width="321" height="300" viewBox="0 0 321 300" fill="none" xmlns="http://www.w3.org/2000/svg">
<path fill-rule="evenodd" clip-rule="evenodd" d="M336.757 0.0676654C399.896 2.45848 438.881 66.8157 487.486 107.188C532.19 144.321 583.614 173.914 608.993 226.194C636.942 283.77 650.173 349.401 635.279 411.645C619.661 476.917 586.611 546.583 525.625 574.605C466.44 601.8 400.823 560.559 336.757 548.813C286.772 539.648 239.101 533.269 192.291 513.49C131.004 487.592 55.9324 474.522 23.4852 416.437C-10.3812 355.811 -5.49207 275.816 24.549 213.207C53.0818 153.74 123.026 132.639 177.499 95.4503C229.887 59.6864 273.371 -2.33245 336.757 0.0676654Z" fill="#3A3461"/>
</svg>
