<svg width="854" height="776" viewBox="0 0 854 776" fill="none" xmlns="http://www.w3.org/2000/svg">
<path fill-rule="evenodd" clip-rule="evenodd" d="M774.273 -303.33C887.438 -294.821 1009.22 -341.402 1105.68 -281.598C1209.11 -217.473 1290.06 -101.787 1295.5 19.8299C1300.77 137.684 1202.63 229.263 1132.78 324.319C1076.6 400.772 1006.09 456.969 931.35 515.385C839.434 587.222 763.446 707.143 646.854 704.103C529.836 701.052 463.304 572.908 371.092 500.778C266.378 418.868 109.927 380.527 70.7409 253.452C31.1084 124.929 102.409 -14.0666 178.035 -125.283C246.079 -225.348 351.304 -294.993 467.218 -329.607C568.126 -359.74 669.267 -311.226 774.273 -303.33Z" fill="#F5F5F5"/>
</svg>
