<svg width="528" height="507" viewBox="0 0 528 507" fill="none" xmlns="http://www.w3.org/2000/svg">
<path fill-rule="evenodd" clip-rule="evenodd" d="M567.035 -124.897C607.523 -75.8253 685.064 -55.5819 698.936 6.50544C712.963 69.2881 662.262 125.214 636.04 183.958C607.275 248.398 604.45 340.942 538.474 365.983C471.594 391.367 408.134 321.138 341.215 295.857C289.815 276.439 238.261 265.295 192.29 235.2C133.298 196.581 39.6458 168.159 38.4617 97.6607C37.2337 24.5458 137.96 -2.13683 187.399 -56.0169C220.727 -92.3383 244.48 -132.579 280.553 -166.176C333.779 -215.747 375.499 -308.623 447.491 -298.249C518.708 -287.988 521.243 -180.397 567.035 -124.897Z" fill="#3E3562"/>
</svg>
