<svg width="64" height="64" viewBox="0 0 64 64" fill="none" xmlns="http://www.w3.org/2000/svg">
<g filter="url(#filter0_d)">
<rect x="9" y="9" width="46" height="46" rx="6" fill="#202543"/>
</g>
<path fill-rule="evenodd" clip-rule="evenodd" d="M23.9 32C23.9 27.5265 27.5265 23.9 32 23.9C36.4735 23.9 40.1 27.5265 40.1 32C40.1 36.4735 36.4735 40.1 32 40.1C27.5265 40.1 23.9 36.4735 23.9 32ZM32 22.1C26.5324 22.1 22.1 26.5324 22.1 32C22.1 37.4676 26.5324 41.9 32 41.9C37.4676 41.9 41.9 37.4676 41.9 32C41.9 26.5324 37.4676 22.1 32 22.1ZM36.6098 27.6622C36.7075 27.4863 36.5137 27.2925 36.3378 27.3902L31.5848 30.0308C30.9318 30.3935 30.3935 30.9319 30.0307 31.5848L27.3902 36.3378C27.2925 36.5137 27.4863 36.7075 27.6621 36.6098L32.4152 33.9692C33.0681 33.6065 33.6065 33.0681 33.9692 32.4152L36.6098 27.6622Z" fill="#05B6B9"/>
<defs>
<filter id="filter0_d" x="0" y="0" width="64" height="64" filterUnits="userSpaceOnUse" color-interpolation-filters="sRGB">
<feFlood flood-opacity="0" result="BackgroundImageFix"/>
<feColorMatrix in="SourceAlpha" type="matrix" values="0 0 0 0 0 0 0 0 0 0 0 0 0 0 0 0 0 0 127 0"/>
<feMorphology radius="3" operator="dilate" in="SourceAlpha" result="effect1_dropShadow"/>
<feOffset/>
<feGaussianBlur stdDeviation="3"/>
<feColorMatrix type="matrix" values="0 0 0 0 0 0 0 0 0 0.6 0 0 0 0 0.596703 0 0 0 1 0"/>
<feBlend mode="normal" in2="BackgroundImageFix" result="effect1_dropShadow"/>
<feBlend mode="normal" in="SourceGraphic" in2="effect1_dropShadow" result="shape"/>
</filter>
</defs>
</svg>
