<svg width="348" height="372" viewBox="0 0 348 372" fill="none" xmlns="http://www.w3.org/2000/svg">
<path fill-rule="evenodd" clip-rule="evenodd" d="M280.691 68.2857C356.979 68.3226 424.229 -18.9727 495.63 7.89297C566.763 34.658 595.954 121.449 616.472 194.629C636.374 265.61 644.577 345.97 608.436 410.222C574.404 470.727 489.97 473.757 435.361 516.616C377.29 562.193 352.943 652.318 280.691 667.452C206.119 683.072 118.917 651.866 70.4946 593.041C23.9906 536.548 57.7603 452.439 44.4681 380.484C33.6913 322.146 -3.14208 271.829 0.215462 212.599C4.37503 139.221 0.247963 41.311 65.6008 7.68491C133.497 -27.2498 204.334 68.2488 280.691 68.2857Z" fill="#845DB4"/>
</svg>
