<svg width="304" height="336" viewBox="0 0 304 336" fill="none" xmlns="http://www.w3.org/2000/svg">
<path fill-rule="evenodd" clip-rule="evenodd" d="M-33.2227 -157.679C34.5928 -158.8 114.314 -214.527 164.927 -169.378C216.866 -123.046 157.884 -31.8959 181.27 33.6588C205.922 102.763 319.905 141.052 300.955 211.933C282.377 281.42 177.501 275.701 109.952 300.415C62.7468 317.686 16.9694 331.478 -33.2227 334.2C-86.4209 337.085 -138.556 336.064 -188.142 316.58C-251.426 291.712 -321.998 267.399 -354.795 207.837C-389.818 144.234 -388.613 64.2095 -364.896 -4.41547C-341.424 -72.3316 -291.897 -132.76 -226.667 -162.902C-166.643 -190.639 -99.3368 -156.585 -33.2227 -157.679Z" fill="#845DB4"/>
</svg>
